<svg xmlns="http://www.w3.org/2000/svg" xmlns:xlink="http://www.w3.org/1999/xlink" width="1200" zoomAndPan="magnify" viewBox="0 0 900 899.99999" height="1200" preserveAspectRatio="xMidYMid meet" version="1.0"><defs><g/><clipPath id="74335ac1ba"><rect x="0" width="414" y="0" height="647"/></clipPath></defs><rect x="-90" width="1080" fill="#ffffff" y="-89.999999" height="1079.999988" fill-opacity="1"/><rect x="-90" width="1080" fill="#f2f2f2" y="-89.999999" height="1079.999988" fill-opacity="1"/><g transform="matrix(1, 0, 0, 1, 39, 253)"><g clip-path="url(#74335ac1ba)"><g fill="#535a38" fill-opacity="1"><g transform="translate(1.016007, 545.884935)"><g><path d="M 146.84375 -246.671875 C 166.71875 -246.671875 183.304688 -247.855469 196.597656 -250.222656 C 209.304688 -252.484375 219.265625 -255.964844 226.480469 -260.664062 C 233.265625 -265.082031 238.136719 -270.71875 241.09375 -277.566406 C 244.25 -284.867188 245.824219 -293.632812 245.824219 -303.855469 L 245.824219 -311.625 L 281.125 -311.625 L 281.125 -141.902344 L 245.824219 -141.902344 L 245.824219 -149.667969 C 245.824219 -160 244.398438 -168.855469 241.546875 -176.238281 C 238.929688 -183.007812 234.25 -188.664062 227.503906 -193.214844 C 220.257812 -198.101562 210.265625 -201.855469 197.527344 -204.472656 C 184.296875 -207.191406 167.40625 -208.546875 146.84375 -208.546875 L 146.84375 -216.316406 L 154.613281 -216.316406 L 154.613281 -88.671875 C 154.613281 -77.179688 155.957031 -67.820312 158.640625 -60.597656 C 161.085938 -54.027344 165.3125 -48.664062 171.316406 -44.507812 C 177.71875 -40.078125 186.378906 -36.921875 197.296875 -35.046875 C 208.910156 -33.050781 223.34375 -32.050781 240.601562 -32.050781 C 260.039062 -32.050781 276.464844 -33.414062 289.890625 -36.132812 C 302.726562 -38.734375 313.402344 -43.101562 321.910156 -49.226562 C 330.304688 -55.269531 337.039062 -63.285156 342.117188 -73.273438 C 347.472656 -83.804688 351.964844 -97.042969 355.585938 -112.984375 L 356.960938 -119.03125 L 393.003906 -119.03125 L 383.347656 7.765625 L 17.648438 7.765625 L 17.648438 -29.007812 L 25.195312 -29.226562 C 37.851562 -29.585938 47.976562 -30.648438 55.566406 -32.414062 C 62.222656 -33.960938 67.285156 -36.472656 70.753906 -39.945312 C 74.128906 -43.320312 76.425781 -48.351562 77.640625 -55.042969 C 79.066406 -62.867188 79.777344 -73.136719 79.777344 -85.847656 L 79.777344 -349.039062 C 79.777344 -361.800781 79.152344 -372.019531 77.902344 -379.703125 C 76.8125 -386.390625 74.75 -391.542969 71.710938 -395.160156 C 68.882812 -398.527344 64.554688 -400.867188 58.726562 -402.179688 C 51.597656 -403.78125 42.214844 -404.949219 30.578125 -405.675781 L 23.296875 -406.128906 L 23.296875 -442.65625 L 364.890625 -442.65625 L 370.769531 -327.71875 L 336.140625 -327.71875 L 335.148438 -334.332031 C 333.019531 -348.519531 329.621094 -360.023438 324.949219 -368.84375 C 320.507812 -377.238281 314.4375 -383.894531 306.738281 -388.808594 C 298.78125 -393.886719 288.546875 -397.46875 276.035156 -399.554688 C 262.902344 -401.742188 246.949219 -402.835938 228.175781 -402.835938 L 156.445312 -402.835938 C 155.6875 -402.835938 155.105469 -402.769531 154.703125 -402.636719 L 154.738281 -402.710938 L 154.8125 -402.746094 C 154.679688 -402.34375 154.613281 -401.761719 154.613281 -401 L 154.613281 -238.90625 L 146.84375 -238.90625 Z M 139.078125 -231.140625 L 139.078125 -401 C 139.078125 -406.347656 140.636719 -410.578125 143.753906 -413.695312 C 146.871094 -416.808594 151.101562 -418.367188 156.445312 -418.367188 L 228.175781 -418.367188 C 247.808594 -418.367188 264.609375 -417.203125 278.589844 -414.875 C 293.1875 -412.441406 305.355469 -408.117188 315.09375 -401.898438 C 325.09375 -395.515625 332.957031 -386.921875 338.679688 -376.113281 C 344.175781 -365.730469 348.117188 -352.574219 350.507812 -336.636719 L 342.828125 -335.484375 L 342.828125 -343.25 L 362.59375 -343.25 L 362.59375 -335.484375 L 354.839844 -335.089844 L 349.757812 -434.492188 L 357.511719 -434.886719 L 357.511719 -427.121094 L 31.0625 -427.121094 L 31.0625 -434.886719 L 38.828125 -434.886719 L 38.828125 -413.425781 L 31.0625 -413.425781 L 31.546875 -421.175781 C 44.007812 -420.398438 54.203125 -419.117188 62.136719 -417.332031 C 71.371094 -415.253906 78.527344 -411.191406 83.605469 -405.148438 C 88.476562 -399.351562 91.683594 -391.699219 93.230469 -382.199219 C 94.617188 -373.691406 95.308594 -362.636719 95.308594 -349.039062 L 95.308594 -85.847656 C 95.308594 -72.203125 94.515625 -61.007812 92.925781 -52.265625 C 91.128906 -42.390625 87.398438 -34.621094 81.738281 -28.960938 C 76.171875 -23.394531 68.621094 -19.503906 59.085938 -17.285156 C 50.484375 -15.285156 39.335938 -14.089844 25.636719 -13.699219 L 25.414062 -21.460938 L 33.183594 -21.460938 L 33.183594 0 L 25.414062 0 L 25.414062 -7.765625 L 376.148438 -7.765625 L 376.148438 0 L 368.40625 -0.589844 L 376.878906 -111.851562 L 384.621094 -111.265625 L 384.621094 -103.496094 L 363.160156 -103.496094 L 363.160156 -111.265625 L 370.734375 -109.542969 C 366.824219 -92.347656 361.902344 -77.910156 355.964844 -66.230469 C 349.746094 -54.003906 341.421875 -44.132812 330.988281 -36.621094 C 320.667969 -29.191406 308 -23.957031 292.976562 -20.910156 C 278.535156 -17.984375 261.074219 -16.519531 240.601562 -16.519531 C 222.460938 -16.519531 207.152344 -17.59375 194.667969 -19.738281 C 181.488281 -22.003906 170.757812 -26.003906 162.476562 -31.738281 C 153.792969 -37.746094 147.664062 -45.5625 144.085938 -55.183594 C 140.746094 -64.152344 139.078125 -75.316406 139.078125 -88.671875 L 139.078125 -224.082031 L 146.84375 -224.082031 C 168.457031 -224.082031 186.394531 -222.617188 200.652344 -219.6875 C 215.398438 -216.65625 227.242188 -212.125 236.1875 -206.09375 C 245.632812 -199.722656 252.246094 -191.636719 256.035156 -181.835938 C 259.582031 -172.652344 261.355469 -161.929688 261.355469 -149.667969 L 253.589844 -149.667969 L 253.589844 -157.4375 L 273.359375 -157.4375 L 273.359375 -149.667969 L 265.59375 -149.667969 L 265.59375 -303.855469 L 273.359375 -303.855469 L 273.359375 -296.089844 L 253.589844 -296.089844 L 253.589844 -303.855469 L 261.355469 -303.855469 C 261.355469 -291.492188 259.355469 -280.675781 255.355469 -271.410156 C 251.160156 -261.691406 244.359375 -253.769531 234.953125 -247.648438 C 225.976562 -241.800781 214.101562 -237.5625 199.320312 -234.929688 C 185.128906 -232.402344 167.636719 -231.140625 146.84375 -231.140625 Z M 139.078125 -231.140625 "/></g></g></g><g fill="#535a38" fill-opacity="1"><g transform="translate(1.016007, 545.884935)"><g><path d="M 146.84375 -238.90625 C 167.175781 -238.90625 184.210938 -240.128906 197.953125 -242.578125 C 211.703125 -245.023438 222.625 -248.882812 230.71875 -254.15625 C 238.8125 -259.425781 244.644531 -266.203125 248.21875 -274.484375 C 251.800781 -282.773438 253.59375 -292.566406 253.59375 -303.859375 L 273.359375 -303.859375 L 273.359375 -149.671875 L 253.59375 -149.671875 C 253.59375 -160.960938 251.992188 -170.75 248.796875 -179.03125 C 245.597656 -187.320312 239.945312 -194.195312 231.84375 -199.65625 C 223.75 -205.113281 212.828125 -209.253906 199.078125 -212.078125 C 185.335938 -214.898438 167.925781 -216.3125 146.84375 -216.3125 L 146.84375 -88.671875 C 146.84375 -76.242188 148.347656 -65.984375 151.359375 -57.890625 C 154.378906 -49.796875 159.554688 -43.207031 166.890625 -38.125 C 174.234375 -33.039062 183.929688 -29.460938 195.984375 -27.390625 C 208.035156 -25.316406 222.910156 -24.28125 240.609375 -24.28125 C 260.554688 -24.28125 277.492188 -25.691406 291.421875 -28.515625 C 305.359375 -31.347656 317.035156 -36.148438 326.453125 -42.921875 C 335.867188 -49.703125 343.398438 -58.644531 349.046875 -69.75 C 354.691406 -80.851562 359.398438 -94.691406 363.171875 -111.265625 L 384.625 -111.265625 L 376.15625 0 L 25.421875 0 L 25.421875 -21.46875 C 38.597656 -21.84375 49.234375 -22.96875 57.328125 -24.84375 C 65.421875 -26.726562 71.726562 -29.929688 76.25 -34.453125 C 80.769531 -38.972656 83.78125 -45.375 85.28125 -53.65625 C 86.789062 -61.9375 87.546875 -72.664062 87.546875 -85.84375 L 87.546875 -349.046875 C 87.546875 -362.222656 86.882812 -372.859375 85.5625 -380.953125 C 84.25 -389.046875 81.613281 -395.445312 77.65625 -400.15625 C 73.707031 -404.863281 67.96875 -408.0625 60.4375 -409.75 C 52.90625 -411.445312 43.113281 -412.675781 31.0625 -413.4375 L 31.0625 -434.890625 L 357.515625 -434.890625 L 362.59375 -335.484375 L 342.828125 -335.484375 C 340.566406 -350.546875 336.894531 -362.878906 331.8125 -372.484375 C 326.726562 -382.085938 319.757812 -389.710938 310.90625 -395.359375 C 302.0625 -401.003906 290.863281 -404.957031 277.3125 -407.21875 C 263.757812 -409.476562 247.378906 -410.609375 228.171875 -410.609375 L 156.453125 -410.609375 C 150.046875 -410.609375 146.84375 -407.40625 146.84375 -401 Z M 146.84375 -238.90625 "/></g></g></g></g></g><g fill="#535a38" fill-opacity="1"><g transform="translate(407.496007, 500.298572)"><g><path d="M 389.285156 -442.816406 L 412.574219 -442.816406 L 418.265625 -297.328125 L 383.21875 -297.328125 L 381.746094 -303.214844 C 373.886719 -334.652344 358.78125 -359.242188 336.429688 -376.984375 C 314.113281 -394.695312 287.097656 -403.550781 255.378906 -403.550781 C 233.625 -403.550781 214.253906 -399.304688 197.269531 -390.808594 C 180.308594 -382.328125 165.984375 -370.121094 154.292969 -354.179688 C 142.4375 -338.011719 133.339844 -318.152344 127 -294.605469 C 120.585938 -270.78125 117.378906 -243.769531 117.378906 -213.570312 C 117.378906 -154.695312 129.453125 -109.671875 153.605469 -78.488281 C 177.289062 -47.914062 211.777344 -32.628906 257.074219 -32.628906 C 291.558594 -32.628906 319.757812 -41.6875 341.675781 -59.804688 C 363.753906 -78.054688 379.761719 -105.6875 389.691406 -142.699219 L 391.234375 -148.453125 L 428.125 -148.453125 L 428.125 7.769531 L 394.753906 7.769531 L 380.128906 -42.464844 L 387.589844 -44.636719 L 392.613281 -38.707031 C 351.613281 -3.957031 302.101562 13.417969 244.078125 13.417969 C 211.078125 13.417969 181.21875 8.152344 154.503906 -2.378906 C 127.675781 -12.953125 104.738281 -27.957031 85.699219 -47.390625 C 66.660156 -66.820312 51.960938 -90.421875 41.59375 -118.191406 C 31.285156 -145.8125 26.132812 -176.472656 26.132812 -210.179688 C 26.132812 -245.390625 31.566406 -277.558594 42.441406 -306.6875 C 53.351562 -335.90625 68.667969 -361.0625 88.398438 -382.160156 C 108.179688 -403.3125 131.859375 -419.65625 159.4375 -431.195312 C 186.953125 -442.710938 217.238281 -448.464844 250.292969 -448.464844 C 273.703125 -448.464844 295.777344 -445.140625 316.511719 -438.492188 C 337.066406 -431.898438 359.289062 -421.28125 383.171875 -406.640625 L 379.113281 -400.019531 L 371.652344 -402.183594 L 383.449219 -442.816406 Z M 389.285156 -427.28125 L 389.285156 -435.046875 L 396.742188 -432.882812 L 383.734375 -388.074219 L 375.054688 -393.394531 C 352.230469 -407.382812 331.136719 -417.484375 311.765625 -423.695312 C 292.574219 -429.851562 272.082031 -432.929688 250.292969 -432.929688 C 219.316406 -432.929688 191.03125 -427.574219 165.4375 -416.863281 C 139.90625 -406.179688 118.007812 -391.074219 99.746094 -371.546875 C 81.433594 -351.964844 67.183594 -328.53125 56.996094 -301.25 C 46.777344 -273.878906 41.667969 -243.519531 41.667969 -210.179688 C 41.667969 -178.34375 46.496094 -149.492188 56.152344 -123.625 C 65.75 -97.910156 79.296875 -76.125 96.796875 -58.265625 C 114.292969 -40.40625 135.425781 -26.597656 160.199219 -16.832031 C 185.085938 -7.023438 213.046875 -2.117188 244.078125 -2.117188 C 298.300781 -2.117188 344.464844 -18.265625 382.566406 -50.5625 L 391.699219 -58.304688 L 408.042969 -2.171875 L 400.582031 0 L 400.582031 -7.769531 L 420.359375 -7.769531 L 420.359375 0 L 412.589844 0 L 412.589844 -140.683594 L 420.359375 -140.683594 L 420.359375 -132.914062 L 397.191406 -132.914062 L 397.191406 -140.683594 L 404.695312 -138.671875 C 393.910156 -98.464844 376.203125 -68.183594 351.574219 -47.828125 C 326.785156 -27.335938 295.285156 -17.089844 257.074219 -17.089844 C 206.699219 -17.089844 168.113281 -34.386719 141.324219 -68.976562 C 115 -102.957031 101.839844 -151.15625 101.839844 -213.570312 C 101.839844 -245.140625 105.226562 -273.5 111.996094 -298.644531 C 118.839844 -324.0625 128.761719 -345.636719 141.765625 -363.367188 C 154.933594 -381.328125 171.121094 -395.105469 190.320312 -404.707031 C 209.492188 -414.292969 231.179688 -419.085938 255.378906 -419.085938 C 290.707031 -419.085938 320.945312 -409.109375 346.089844 -389.152344 C 371.195312 -369.226562 388.105469 -341.835938 396.820312 -306.984375 L 389.285156 -305.097656 L 389.285156 -312.867188 L 410.1875 -312.867188 L 410.1875 -305.097656 L 402.425781 -304.792969 L 397.339844 -434.746094 L 405.101562 -435.046875 L 405.101562 -427.28125 Z M 389.285156 -427.28125 "/></g></g></g><g fill="#535a38" fill-opacity="1"><g transform="translate(407.496007, 500.298572)"><g><path d="M 389.28125 -435.046875 L 405.109375 -435.046875 L 410.1875 -305.09375 L 389.28125 -305.09375 C 381 -338.238281 364.992188 -364.226562 341.265625 -383.0625 C 317.535156 -401.894531 288.90625 -411.3125 255.375 -411.3125 C 232.40625 -411.3125 211.878906 -406.789062 193.796875 -397.75 C 175.710938 -388.71875 160.457031 -375.722656 148.03125 -358.765625 C 135.601562 -341.816406 126.09375 -321.101562 119.5 -296.625 C 112.90625 -272.144531 109.609375 -244.457031 109.609375 -213.5625 C 109.609375 -152.925781 122.222656 -106.316406 147.453125 -73.734375 C 172.691406 -41.148438 209.234375 -24.859375 257.078125 -24.859375 C 329.773438 -24.859375 376.476562 -63.46875 397.1875 -140.6875 L 420.359375 -140.6875 L 420.359375 0 L 400.578125 0 L 387.59375 -44.640625 C 348.039062 -11.109375 300.203125 5.65625 244.078125 5.65625 C 212.066406 5.65625 183.160156 0.570312 157.359375 -9.59375 C 131.554688 -19.769531 109.519531 -34.179688 91.25 -52.828125 C 72.976562 -71.472656 58.851562 -94.164062 48.875 -120.90625 C 38.894531 -147.65625 33.90625 -177.414062 33.90625 -210.1875 C 33.90625 -244.457031 39.175781 -275.71875 49.71875 -303.96875 C 60.269531 -332.21875 75.054688 -356.507812 94.078125 -376.84375 C 113.097656 -397.1875 135.882812 -412.914062 162.4375 -424.03125 C 188.988281 -435.144531 218.273438 -440.703125 250.296875 -440.703125 C 272.890625 -440.703125 294.164062 -437.5 314.125 -431.09375 C 334.09375 -424.6875 355.753906 -414.328125 379.109375 -400.015625 Z M 389.28125 -435.046875 "/></g></g></g></svg>